<svg width="40" height="40" viewBox="0 0 40 40" fill="none" xmlns="http://www.w3.org/2000/svg">
<path fill-rule="evenodd" clip-rule="evenodd" d="M15.1631 0C10.3149 0 6.38464 4.01791 6.38464 8.86614C6.38464 10.7907 7.00396 12.5844 8.05418 14.0479C5.53601 16.8039 4 20.4726 4 24.5C4 33.0604 10.9396 40 19.5 40C28.0604 40 35 33.0604 35 24.5C35 20.4726 33.464 16.804 30.9458 14.0479C31.9961 12.5844 32.6154 10.7907 32.6154 8.86614C32.6154 4.01791 28.6851 0 23.8369 0H15.1631ZM27.5384 11.2447C27.8897 10.6897 28.093 10.0319 28.093 9.32658V8.19015C28.093 6.20678 26.4852 4.59894 24.5018 4.59894H14.4985C12.5152 4.59894 10.9073 6.20678 10.9073 8.19015V9.32659C10.9073 10.0318 11.1106 10.6896 11.4618 11.2445C13.8056 9.82021 16.557 9 19.5 9C22.4431 9 25.1946 9.82027 27.5384 11.2447Z" fill="#2F2F37"/>
<path d="M12.4741 20.802V26.4059H14.9483C15.2874 26.4059 15.6063 26.3343 15.9052 26.1911C16.204 26.0414 16.4655 25.8396 16.6897 25.5858C16.9138 25.3319 17.0891 25.0358 17.2155 24.6974C17.3477 24.3524 17.4138 23.9879 17.4138 23.6039C17.4138 23.2199 17.3477 22.8587 17.2155 22.5202C17.0891 22.1753 16.9138 21.8759 16.6897 21.622C16.4655 21.3682 16.204 21.1697 15.9052 21.0265C15.6063 20.8768 15.2874 20.802 14.9483 20.802H12.4741ZM12.4741 32H10V18H14.9483C15.4023 18 15.8391 18.0683 16.2586 18.205C16.6782 18.3352 17.069 18.5239 17.431 18.7713C17.7989 19.0121 18.1322 19.305 18.431 19.6499C18.7356 19.9884 18.9943 20.3659 19.2069 20.7824C19.4253 21.199 19.592 21.6448 19.7069 22.1199C19.8276 22.5951 19.8879 23.0897 19.8879 23.6039C19.8879 24.3719 19.7586 25.0976 19.5 25.781C19.2414 26.4579 18.8879 27.0502 18.4397 27.5579C17.9914 28.0656 17.4655 28.4658 16.8621 28.7587C16.2644 29.0516 15.6264 29.198 14.9483 29.198H12.4741V32Z" fill="white"/>
<path d="M23.819 32H21.3448V18H30V20.802H23.819V23.6039H27.5259V26.4059H23.819V32Z" fill="white"/>
</svg>
